HIERARCHY
ROOT hip
{
  OFFSET 0 0 0
  CHANNELS 6 Xposition Yposition Zposition Zrotation Yrotation Xrotation
  JOINT abdomen
  {
    OFFSET 0 20.6881 -0.73152
    CHANNELS 3 Zrotation Xrotation Yrotation
    JOINT chest
    {
      OFFSET 0 11.7043 -0.48768
      CHANNELS 3 Zrotation Xrotation Yrotation
      JOINT neck
      {
        OFFSET 0 22.1894 -2.19456
        CHANNELS 3 Zrotation Xrotation Yrotation
        JOINT head
        {
          OFFSET -0.24384 7.07133 1.2192
          CHANNELS 3 Zrotation Xrotation Yrotation
          JOINT leftEye
          {
            OFFSET 4.14528 8.04674 8.04672
            CHANNELS 3 Zrotation Xrotation Yrotation
            End Site
            {
              OFFSET 1 0 0
            }
          }
          JOINT rightEye
          {
            OFFSET -3.6576 8.04674 8.04672
            CHANNELS 3 Zrotation Xrotation Yrotation
            End Site
            {
              OFFSET 1 0 0
            }
          }
        }
      }
      JOINT rCollar
      {
        OFFSET -2.68224 19.2634 -4.8768
        CHANNELS 3 Zrotation Xrotation Yrotation
        JOINT rShldr
        {
          OFFSET -8.77824 -1.95073 1.46304
          CHANNELS 3 Zrotation Xrotation Yrotation
          JOINT rForeArm
          {
            OFFSET -28.1742 -1.7115 0.48768
            CHANNELS 3 Zrotation Xrotation Yrotation
            JOINT rHand
            {
              OFFSET -22.5879 0.773209 7.07136
              CHANNELS 3 Zrotation Xrotation Yrotation
              JOINT rThumb1
              {
                OFFSET -1.2192 -0.487915 3.41376
                CHANNELS 3 Zrotation Xrotation Yrotation
                JOINT rThumb2
                {
                  OFFSET -3.37035 -0.52449 3.41376
                  CHANNELS 3 Zrotation Xrotation Yrotation
                  End Site
                  {
                    OFFSET -1.78271 -1.18214 1.43049
                  }
                }
              }
              JOINT rIndex1
              {
                OFFSET -7.75947 0.938293 5.60832
                CHANNELS 3 Zrotation Xrotation Yrotation
                JOINT rIndex2
                {
                  OFFSET -2.54057 -0.884171 1.56538
                  CHANNELS 3 Zrotation Xrotation Yrotation
                  End Site
                  {
                    OFFSET -1.62519 -0.234802 1.16502
                  }
                }
              }
              JOINT rMid1
              {
                OFFSET -8.24714 1.18213 3.41376
                CHANNELS 3 Zrotation Xrotation Yrotation
                JOINT rMid2
                {
                  OFFSET -3.10165 -0.590103 1.0647
                  CHANNELS 3 Zrotation Xrotation Yrotation
                  End Site
                  {
                    OFFSET -2.48547 -0.328903 0.83742
                  }
                }
              }
              JOINT rRing1
              {
                OFFSET -8.82822 0.546677 1.51678
                CHANNELS 3 Zrotation Xrotation Yrotation
                JOINT rRing2
                {
                  OFFSET -2.60934 -0.819778 -0.0198488
                  CHANNELS 3 Zrotation Xrotation Yrotation
                  End Site
                  {
                    OFFSET -2.33842 -0.294052 0.168128
                  }
                }
              }
              JOINT rPinky1
              {
                OFFSET -8.27202 -0.0477905 -0.4584
                CHANNELS 3 Zrotation Xrotation Yrotation
                JOINT rPinky2
                {
                  OFFSET -1.82734 -0.647385 -0.700984
                  CHANNELS 3 Zrotation Xrotation Yrotation
                  End Site
                  {
                    OFFSET -1.69225 -0.51767 -0.607171
                  }
                }
              }
            }
          }
        }
      }
      JOINT lCollar
      {
        OFFSET 2.68224 19.2634 -4.8768
        CHANNELS 3 Zrotation Xrotation Yrotation
        JOINT lShldr
        {
          OFFSET 8.77824 -1.95073 1.46304
          CHANNELS 3 Zrotation Xrotation Yrotation
          JOINT lForeArm
          {
            OFFSET 28.1742 -1.7115 0.48768
            CHANNELS 3 Zrotation Xrotation Yrotation
            JOINT lHand
            {
              OFFSET 22.5879 0.773209 7.07136
              CHANNELS 3 Zrotation Xrotation Yrotation
              JOINT lThumb1
              {
                OFFSET 1.2192 -0.487915 3.41376
                CHANNELS 3 Zrotation Xrotation Yrotation
                JOINT lThumb2
                {
                  OFFSET 3.37035 -0.52449 3.41376
                  CHANNELS 3 Zrotation Xrotation Yrotation
                  End Site
                  {
                    OFFSET 1.78271 -1.18214 1.43049
                  }
                }
              }
              JOINT lIndex1
              {
                OFFSET 7.75947 0.938293 5.60832
                CHANNELS 3 Zrotation Xrotation Yrotation
                JOINT lIndex2
                {
                  OFFSET 2.54057 -0.884171 1.56538
                  CHANNELS 3 Zrotation Xrotation Yrotation
                  End Site
                  {
                    OFFSET 1.62519 -0.234802 1.16502
                  }
                }
              }
              JOINT lMid1
              {
                OFFSET 8.24714 1.18213 3.41376
                CHANNELS 3 Zrotation Xrotation Yrotation
                JOINT lMid2
                {
                  OFFSET 3.10165 -0.590103 1.0647
                  CHANNELS 3 Zrotation Xrotation Yrotation
                  End Site
                  {
                    OFFSET 2.48547 -0.328903 0.83742
                  }
                }
              }
              JOINT lRing1
              {
                OFFSET 8.82822 0.546677 1.51678
                CHANNELS 3 Zrotation Xrotation Yrotation
                JOINT lRing2
                {
                  OFFSET 2.60934 -0.819778 -0.0198488
                  CHANNELS 3 Zrotation Xrotation Yrotation
                  End Site
                  {
                    OFFSET 2.33842 -0.294052 0.168128
                  }
                }
              }
              JOINT lPinky1
              {
                OFFSET 8.27202 -0.0477905 -0.4584
                CHANNELS 3 Zrotation Xrotation Yrotation
                JOINT lPinky2
                {
                  OFFSET 1.82734 -0.647385 -0.700984
                  CHANNELS 3 Zrotation Xrotation Yrotation
                  End Site
                  {
                    OFFSET 1.69225 -0.51767 -0.607171
                  }
                }
              }
            }
          }
        }
      }
    }
  }
  JOINT rButtock
  {
    OFFSET -8.77824 4.35084 1.2192
    CHANNELS 3 Zrotation Xrotation Yrotation
    JOINT rThigh
    {
      OFFSET 0 -1.70687 -2.19456
      CHANNELS 3 Zrotation Xrotation Yrotation
      JOINT rShin
      {
        OFFSET 0 -36.8199 0.73152
        CHANNELS 3 Zrotation Xrotation Yrotation
        JOINT rFoot
        {
          OFFSET 0.73152 -45.1104 -5.12064
          CHANNELS 3 Zrotation Xrotation Yrotation
          End Site
          {
            OFFSET -1.1221 -3.69964 12.103
          }
        }
      }
    }
  }
  JOINT lButtock
  {
    OFFSET 8.77824 4.35084 1.2192
    CHANNELS 3 Zrotation Xrotation Yrotation
    JOINT lThigh
    {
      OFFSET 0 -1.70687 -2.19456
      CHANNELS 3 Zrotation Xrotation Yrotation
      JOINT lShin
      {
        OFFSET 0 -36.8199 0.73152
        CHANNELS 3 Zrotation Xrotation Yrotation
        JOINT lFoot
        {
          OFFSET -0.73152 -45.1104 -5.12064
          CHANNELS 3 Zrotation Xrotation Yrotation
          End Site
          {
            OFFSET 1.1221 -3.69964 12.103
          }
        }
      }
    }
  }
}
MOTION
Frames:	7
Frame Time:	0.00833333
45.5588 114.521 36.2749 179.079 2.8909 -166.678 -10.8943 6.59637 6.63184 4.26617 2.23122 1.79392 -3.38253 8.04745 0.103964 11.1221 3.93754 -3.41224 -0.0 0.0 0.0 -0.0 0.0 0.0 -1.59115e-14 3.08131e-14 7.26849e-14 81.7999 9.8739 1.97194 -12.2999 -5.66038 22.1937 -0.205761 12.8228 1.83309 -2.08776e-10 -1.30887e-10 -1.61471e-09 -3.80415e-10 -2.27091e-10 -2.79086e-09 -2.08771e-10 -1.30892e-10 -1.61473e-09 7.73091 5.47488 0.417314 -2.08778e-10 -1.30892e-10 -1.61471e-09 2.90554 0.965183 0.102902 -2.08778e-10 -1.30891e-10 -1.61472e-09 10.2786 0.731801 0.0259123 -2.0878e-10 -1.30886e-10 -1.6147e-09 2.22167 -0.733487 -0.20892 -1.59028e-14 3.08101e-14 7.24698e-14 -75.4474 19.3296 -8.22511 10.125 -4.21758 -18.0359 0.579863 21.0941 -3.10818 -6.54939e-10 -6.39355e-11 4.07366e-10 -1.1217e-09 -1.05773e-10 7.15763e-10 -6.5495e-10 -6.39394e-11 4.07375e-10 -7.73091 5.47488 -0.417314 -6.54943e-10 -6.39397e-11 4.0737e-10 -2.90554 0.965183 -0.102902 -6.54948e-10 -6.39406e-11 4.07371e-10 -10.2786 0.731801 -0.0259123 -6.54933e-10 -6.39401e-11 4.07372e-10 -2.22167 -0.733487 0.20892 -2.03217e-16 0.0 -3.88251e-19 -0.463044 -28.0363 -1.85156 -0.986604 59.5657 1.64557 -0.141582 10.035 -6.69621 2.03217e-16 0.0 3.88251e-19 -3.93013 -40.4319 -5.95315 0.191098 30.0648 -0.507823 0.101988 -18.1378 -0.801958
45.3042 114.91 34.9237 178.887 3.0501 -167.015 -11.3561 6.76269 6.17278 4.35087 2.29245 1.66209 -3.27796 7.90271 0.276829 10.9276 4.31191 -3.18655 -0.0 0.0 0.0 -0.0 0.0 0.0 -1.63104e-14 1.59028e-14 1.04263e-13 81.9267 8.37428 0.842557 -12.1824 -5.5774 21.9634 -0.214154 13.0685 1.86951 -2.56468e-10 1.80582e-10 -2.11142e-09 -4.67853e-10 3.12995e-10 -3.64945e-09 -2.56464e-10 1.80576e-10 -2.11144e-09 7.73091 5.47488 0.417314 -2.5647e-10 1.80577e-10 -2.11142e-09 2.90554 0.965183 0.102902 -2.56473e-10 1.80579e-10 -2.11143e-09 10.2786 0.731801 0.0259123 -2.56473e-10 1.80584e-10 -2.11141e-09 2.22167 -0.733487 -0.20892 -1.62914e-14 1.59028e-14 1.04064e-13 -75.2641 19.8769 -8.62727 10.2937 -4.32167 -18.3532 0.596575 21.3975 -3.15689 -1.15828e-09 -3.84911e-11 8.43229e-10 -1.98411e-09 -5.94064e-11 1.47793e-09 -1.15829e-09 -3.8495e-11 8.43235e-10 -7.73091 5.47488 -0.417314 -1.15828e-09 -3.84955e-11 8.43235e-10 -2.90554 0.965183 -0.102902 -1.15828e-09 -3.84969e-11 8.43236e-10 -10.2786 0.731801 -0.0259123 -1.15827e-09 -3.84962e-11 8.43238e-10 -2.22167 -0.733487 0.20892 -2.03217e-16 0.0 -3.88251e-19 -1.0241 -31.0686 -2.01155 -1.16357 62.0897 1.78725 -0.523252 6.80035 -7.08196 2.03217e-16 0.0 3.88251e-19 -4.49694 -38.6135 -5.96135 0.181713 29.1206 -0.466289 0.081224 -18.7073 -0.822147
45.0639 115.294 33.5401 178.689 3.2615 -167.434 -11.6039 6.96372 5.61076 4.44468 2.35872 1.5 -3.30853 7.83095 0.506261 10.8838 4.56152 -3.02248 -0.0 0.0 0.0 -0.0 0.0 0.0 -7.77313e-15 -2.36811e-14 1.17485e-13 81.995 7.08757 -0.286136 -12.114 -5.52755 21.8332 -0.209506 12.9136 1.84671 -2.5025e-10 3.61799e-10 -1.65347e-09 -4.51064e-10 6.27916e-10 -2.85802e-09 -2.50247e-10 3.61794e-10 -1.65348e-09 7.73091 5.47488 0.417314 -2.50253e-10 3.61794e-10 -1.65347e-09 2.90554 0.965183 0.102902 -2.50254e-10 3.61796e-10 -1.65347e-09 10.2786 0.731801 0.0259123 -2.50256e-10 3.61801e-10 -1.65346e-09 2.22167 -0.733487 -0.20892 -7.75744e-15 -2.36793e-14 1.1734e-13 -75.1099 20.3386 -9.07939 10.4341 -4.40813 -18.6197 0.613653 21.6876 -3.20399 -1.01012e-09 3.30103e-11 8.71515e-10 -1.72733e-09 6.32364e-11 1.52485e-09 -1.01013e-09 3.3007e-11 8.71521e-10 -7.73091 5.47488 -0.417314 -1.01013e-09 3.30067e-11 8.71521e-10 -2.90554 0.965183 -0.102902 -1.01013e-09 3.30051e-11 8.71522e-10 -10.2786 0.731801 -0.0259123 -1.01012e-09 3.3006e-11 8.71523e-10 -2.22167 -0.733487 0.20892 -2.03217e-16 0.0 -3.88251e-19 -1.40836 -34.0092 -2.05192 -1.29556 63.7483 1.89233 -0.852278 4.16694 -7.29181 2.03217e-16 0.0 3.88251e-19 -4.90766 -36.7627 -5.95759 0.170555 28.1194 -0.43561 0.0747636 -19.2587 -0.816905
44.881 115.671 32.1929 178.716 3.373 -167.731 -11.71 7.19578 4.96902 4.54463 2.42829 1.31445 -3.4188 7.78852 0.783257 10.918 4.77306 -2.89084 -0.0 0.0 0.0 -0.0 0.0 0.0 8.11205e-15 -8.60753e-14 1.21638e-13 82.0338 5.91907 -1.4172 -12.0979 -5.51522 21.8035 -0.195797 12.4682 1.78108 -2.20331e-10 4.72762e-10 -5.68513e-10 -3.86029e-10 8.21394e-10 -9.82822e-10 -2.20328e-10 4.72759e-10 -5.68523e-10 7.73091 5.47488 0.417314 -2.20333e-10 4.72759e-10 -5.68514e-10 2.90554 0.965183 0.102902 -2.2033e-10 4.72759e-10 -5.68515e-10 10.2786 0.731801 0.0259123 -2.20337e-10 4.72763e-10 -5.68503e-10 2.22167 -0.733487 -0.20892 8.11426e-15 -8.60722e-14 1.21572e-13 -74.9803 20.7017 -9.55707 10.5503 -4.48023 -18.8413 0.636908 22.0706 -3.26657 -4.38421e-10 1.31708e-10 6.23148e-10 -7.43407e-10 2.30858e-10 1.08656e-09 -4.38429e-10 1.31706e-10 6.23154e-10 -7.73091 5.47488 -0.417314 -4.38422e-10 1.31706e-10 6.23154e-10 -2.90554 0.965183 -0.102902 -4.38427e-10 1.31704e-10 6.23154e-10 -10.2786 0.731801 -0.0259123 -4.38418e-10 1.31705e-10 6.23152e-10 -2.22167 -0.733487 0.20892 -2.03217e-16 0.0 -3.88251e-19 -1.63657 -36.9197 -1.9622 -1.3878 64.7352 1.96654 -1.18168 1.54909 -7.32736 2.03217e-16 0.0 3.88251e-19 -5.21929 -34.8713 -5.93187 0.157518 27.071 -0.41276 0.0868501 -19.786 -0.776278
44.7053 116.026 30.8651 178.763 3.3782 -167.933 -11.753 7.43062 4.29602 4.65439 2.49422 1.11953 -3.49891 7.74161 0.968914 10.9094 5.00088 -2.67786 -0.0 0.0 0.0 -0.0 0.0 0.0 2.51359e-14 -1.33262e-13 1.18855e-13 82.0534 4.70288 -2.54433 -12.0715 -5.49687 21.7517 -0.184934 12.1089 1.72826 -2.02335e-10 5.40506e-10 4.34321e-10 -3.43051e-10 9.39184e-10 7.50945e-10 -2.02332e-10 5.40506e-10 4.34313e-10 7.73091 5.47488 0.417314 -2.02337e-10 5.40504e-10 4.3432e-10 2.90554 0.965183 0.102902 -2.02329e-10 5.40503e-10 4.34321e-10 10.2786 0.731801 0.0259123 -2.0234e-10 5.40506e-10 4.34329e-10 2.22167 -0.733487 -0.20892 2.5121e-14 -1.33259e-13 1.18864e-13 -74.8435 21.0909 -10.0418 10.6824 -4.56439 -19.091 0.657517 22.3988 -3.32057 1.33219e-10 1.9164e-10 3.21168e-10 2.39381e-10 3.32027e-10 5.55426e-10 1.33213e-10 1.9164e-10 3.21176e-10 -7.73091 5.47488 -0.417314 1.3322e-10 1.9164e-10 3.21173e-10 -2.90554 0.965183 -0.102902 1.33215e-10 1.91639e-10 3.21172e-10 -10.2786 0.731801 -0.0259123 1.33223e-10 1.9164e-10 3.21168e-10 -2.22167 -0.733487 0.20892 -2.03217e-16 0.0 -3.88251e-19 -1.80343 -39.7402 -1.8142 -1.43315 65.1406 1.99848 -1.4897 -0.898868 -7.37552 2.03217e-16 0.0 3.88251e-19 -5.48977 -32.9784 -5.89243 0.144249 26.0037 -0.394843 0.101236 -20.2935 -0.736109
44.4685 116.371 29.4991 178.48 3.3363 -168.245 -11.8137 7.64003 3.64047 4.77751 2.54959 0.929366 -3.43907 7.65662 0.924342 10.7342 5.2993 -2.26956 -0.0 0.0 0.0 -0.0 0.0 0.0 3.7089e-14 -1.27223e-13 1.1127e-13 82.0518 3.27352 -3.66053 -11.9715 -5.42869 21.5547 -0.186496 12.2127 1.74313 -2.31885e-10 5.92063e-10 6.45913e-10 -3.9243e-10 1.02704e-09 1.1181e-09 -2.3188e-10 5.92065e-10 6.45907e-10 7.73091 5.47488 0.417314 -2.31887e-10 5.92062e-10 6.45913e-10 2.90554 0.965183 0.102902 -2.31877e-10 5.92061e-10 6.45914e-10 10.2786 0.731801 0.0259123 -2.3189e-10 5.92062e-10 6.4592e-10 2.22167 -0.733487 -0.20892 3.70601e-14 -1.27221e-13 1.11319e-13 -74.6641 21.6307 -10.517 10.8693 -4.6866 -19.442 0.665545 22.5243 -3.34131 2.81186e-10 1.46846e-10 1.88616e-10 4.92749e-10 2.55316e-10 3.238e-10 2.81182e-10 1.46846e-10 1.88626e-10 -7.73091 5.47488 -0.417314 2.81189e-10 1.46847e-10 1.8862e-10 -2.90554 0.965183 -0.102902 2.81183e-10 1.46846e-10 1.8862e-10 -10.2786 0.731801 -0.0259123 2.8119e-10 1.46847e-10 1.88613e-10 -2.22167 -0.733487 0.20892 -2.03217e-16 0.0 -3.88251e-19 -2.02416 -42.4109 -1.69091 -1.43003 65.0548 1.98243 -1.78578 -3.0186 -7.61891 2.03217e-16 0.0 3.88251e-19 -5.7757 -31.1226 -5.84612 0.132574 24.9452 -0.37904 0.100297 -20.7852 -0.732713
44.2479 116.69 28.1624 178.172 3.2918 -168.549 -11.9265 7.8157 2.9932 4.92102 2.5863 0.741376 -3.14551 7.49187 0.504048 10.2609 5.75153 -1.50505 -0.0 0.0 0.0 -0.0 0.0 0.0 4.14173e-14 -2.2114e-14 9.64618e-14 82.0116 1.67733 -4.77323 -11.7835 -5.29837 21.1904 -0.207545 12.8235 1.83404 -3.16062e-10 6.70645e-10 -5.75984e-10 -5.55314e-10 1.15702e-09 -9.91161e-10 -3.16051e-10 6.7065e-10 -5.75988e-10 7.73091 5.47488 0.417314 -3.16064e-10 6.70644e-10 -5.75981e-10 2.90554 0.965183 0.102902 -3.16054e-10 6.70643e-10 -5.75982e-10 10.2786 0.731801 0.0259123 -3.16066e-10 6.70644e-10 -5.75978e-10 2.22167 -0.733487 -0.20892 4.13793e-14 -2.21157e-14 9.65057e-14 -74.4283 22.3897 -10.9642 11.1267 -4.85651 -19.9292 0.657125 22.3899 -3.31916 -3.10713e-10 -7.02507e-11 3.90013e-10 -5.27053e-10 -1.12951e-10 6.80983e-10 -3.10716e-10 -7.02508e-11 3.90024e-10 -7.73091 5.47488 -0.417314 -3.1071e-10 -7.02489e-11 3.90013e-10 -2.90554 0.965183 -0.102902 -3.10716e-10 -7.02499e-11 3.90014e-10 -10.2786 0.731801 -0.0259123 -3.10709e-10 -7.02483e-11 3.90007e-10 -2.22167 -0.733487 0.20892 -2.03217e-16 0.0 -3.88251e-19 -2.35106 -44.9465 -1.61083 -1.376 64.4237 1.91846 -2.10994 -4.76896 -8.20163 2.03217e-16 0.0 3.88251e-19 -6.11781 -29.2946 -5.79271 0.122489 23.891 -0.367354 0.0791358 -21.283 -0.775902
